<svg xmlns="http://www.w3.org/2000/svg" width="128" height="128" viewBox="0 0 64 64" role="img" aria-label="Boosted tap flow: a broad three-strand continuous stream">
  <g fill="#39453F">
    <rect x="7" y="17" width="7" height="17" rx="1.5"/>
    <path d="M12 20H38C46 20 50 24 50 30V33H40V30C40 28 38 27 35 27H12Z"/>
    <rect x="24" y="13" width="6" height="9" rx="1"/>
    <rect x="18" y="9" width="18" height="5" rx="2"/>
  </g>
  <g fill="#36747B">
    <path d="M40 35H43L41 48L39 60H34L37 47Z"/>
    <path d="M44 35H47L48 60H43Z"/>
    <path d="M48 35H51L54 47L57 60H52L50 48Z"/>
  </g>
</svg>
